<?xml version="1.0" encoding="utf-8"?>
<!-- Generator: Adobe Illustrator 21.0.0, SVG Export Plug-In . SVG Version: 6.00 Build 0)  -->
<svg version="1.1" xmlns="http://www.w3.org/2000/svg" xmlns:xlink="http://www.w3.org/1999/xlink" x="0px" y="0px"
	 viewBox="0 0 168 34" style="enable-background:new 0 0 168 34;" xml:space="preserve">
<style type="text/css">
	.st0{fill:#0C419A;}
</style>
<g id="Layer_1">
	<polygon class="st0" points="4.908,16.478 4.908,2.942 0,2.942 0,0.001 13.185,0.001 13.185,2.942 8.311,2.942 8.311,16.478 	"/>
	<path class="st0" d="M10.95,10.382c0-2.021,0.55-3.609,1.651-4.766c1.1-1.155,2.612-1.734,4.537-1.734
		c1.917,0,3.427,0.578,4.531,1.734c1.103,1.157,1.657,2.745,1.657,4.766c0,2.029-0.554,3.621-1.657,4.777
		c-1.105,1.155-2.614,1.734-4.531,1.734c-1.925,0-3.436-0.578-4.537-1.734C11.5,14.003,10.95,12.411,10.95,10.382 M14.262,10.382
		L14.262,10.382c0,1.208,0.251,2.14,0.748,2.796c0.497,0.656,1.207,0.985,2.128,0.985c0.905,0,1.607-0.329,2.105-0.985
		c0.497-0.656,0.746-1.589,0.746-2.796c0-1.201-0.248-2.127-0.741-2.78c-0.494-0.652-1.197-0.978-2.111-0.978
		c-0.921,0-1.631,0.326-2.128,0.978C14.513,8.255,14.262,9.181,14.262,10.382"/>
	<rect x="25.2" y="0.001" class="st0" width="3.268" height="16.477"/>
	<path class="st0" d="M38.474,12.787h3.257c-0.33,1.283-0.994,2.286-1.993,3.014c-0.999,0.729-2.218,1.091-3.654,1.091
		c-1.767,0-3.168-0.59-4.2-1.772c-1.034-1.182-1.55-2.784-1.55-4.805c0-1.991,0.509-3.561,1.528-4.708
		c1.018-1.149,2.41-1.723,4.177-1.723c1.871,0,3.316,0.565,4.335,1.695c1.018,1.13,1.527,2.738,1.527,4.826
		c0,0.231-0.001,0.405-0.005,0.521c-0.005,0.115-0.013,0.225-0.028,0.33h-8.153c0.044,0.954,0.279,1.673,0.702,2.159
		c0.423,0.484,1.032,0.727,1.825,0.727c0.562,0,1.022-0.11,1.381-0.33C37.98,13.589,38.266,13.25,38.474,12.787 M33.713,9.117
		L33.713,9.117h4.806c-0.03-0.82-0.248-1.444-0.656-1.873c-0.41-0.429-0.994-0.643-1.758-0.643c-0.711,0-1.27,0.216-1.678,0.648
		C34.019,7.683,33.782,8.306,33.713,9.117"/>
	<path class="st0" d="M54.813,0v16.478h-3.099v-1.644c-0.471,0.707-1.001,1.228-1.589,1.559c-0.587,0.333-1.277,0.498-2.072,0.498
		c-1.505,0-2.722-0.593-3.656-1.778c-0.931-1.186-1.397-2.741-1.397-4.665c0-1.939,0.466-3.514,1.397-4.726
		c0.933-1.212,2.136-1.818,3.611-1.818c0.787,0,1.487,0.164,2.105,0.492c0.617,0.327,1.129,0.805,1.533,1.432V0H54.813z
		 M46.268,10.314L46.268,10.314c0,1.23,0.232,2.168,0.696,2.814c0.463,0.645,1.134,0.967,2.01,0.967
		c0.869,0,1.532-0.321,1.988-0.962c0.457-0.641,0.684-1.581,0.684-2.819c0-1.148-0.24-2.034-0.718-2.657
		c-0.48-0.623-1.153-0.934-2.022-0.934c-0.815,0-1.46,0.319-1.932,0.957C46.504,8.318,46.268,9.197,46.268,10.314"/>
	<path class="st0" d="M56.666,10.382c0-2.021,0.551-3.609,1.651-4.766c1.1-1.155,2.612-1.734,4.538-1.734
		c1.915,0,3.427,0.578,4.53,1.734c1.105,1.157,1.657,2.745,1.657,4.766c0,2.029-0.552,3.621-1.657,4.777
		c-1.103,1.155-2.615,1.734-4.53,1.734c-1.926,0-3.437-0.578-4.538-1.734C57.217,14.003,56.666,12.411,56.666,10.382 M59.98,10.382
		L59.98,10.382c0,1.208,0.249,2.14,0.746,2.796c0.498,0.656,1.207,0.985,2.13,0.985c0.905,0,1.607-0.329,2.104-0.985
		c0.498-0.656,0.748-1.589,0.748-2.796c0-1.201-0.248-2.127-0.742-2.78c-0.493-0.652-1.196-0.978-2.109-0.978
		c-0.923,0-1.631,0.326-2.13,0.978C60.229,8.255,59.98,9.181,59.98,10.382"/>
	<path class="st0" d="M88.1,0v16.478H85v-1.644c-0.473,0.707-1.001,1.228-1.589,1.559c-0.587,0.333-1.278,0.498-2.072,0.498
		c-1.505,0-2.722-0.593-3.656-1.778c-0.932-1.186-1.398-2.741-1.398-4.665c0-1.939,0.466-3.514,1.398-4.726
		c0.933-1.212,2.135-1.818,3.611-1.818c0.785,0,1.487,0.164,2.105,0.492c0.617,0.327,1.127,0.805,1.533,1.432V0H88.1z
		 M79.553,10.314L79.553,10.314c0,1.23,0.233,2.168,0.698,2.814c0.463,0.645,1.133,0.967,2.008,0.967
		c0.869,0,1.532-0.321,1.988-0.962c0.457-0.641,0.686-1.581,0.686-2.819c0-1.148-0.241-2.034-0.719-2.657
		c-0.478-0.623-1.153-0.934-2.02-0.934c-0.816,0-1.46,0.319-1.933,0.957C79.79,8.318,79.553,9.197,79.553,10.314"/>
	<path class="st0" d="M89.952,10.382c0-2.021,0.55-3.609,1.651-4.766c1.099-1.155,2.612-1.734,4.537-1.734
		c1.917,0,3.427,0.578,4.53,1.734c1.105,1.157,1.658,2.745,1.658,4.766c0,2.029-0.554,3.621-1.658,4.777
		c-1.103,1.155-2.613,1.734-4.53,1.734c-1.925,0-3.437-0.578-4.537-1.734C90.502,14.003,89.952,12.411,89.952,10.382 M93.265,10.382
		L93.265,10.382c0,1.208,0.25,2.14,0.748,2.796c0.497,0.656,1.207,0.985,2.128,0.985c0.905,0,1.607-0.329,2.105-0.985
		c0.497-0.656,0.748-1.589,0.748-2.796c0-1.201-0.248-2.127-0.742-2.78c-0.494-0.652-1.197-0.978-2.111-0.978
		c-0.921,0-1.631,0.326-2.128,0.978C93.515,8.255,93.265,9.181,93.265,10.382"/>
	<path class="st0" d="M110.448,16.478V0h7.794c1.69,0,2.981,0.357,3.867,1.069c0.886,0.712,1.331,1.747,1.331,3.104
		c0,0.836-0.166,1.532-0.494,2.092c-0.329,0.56-0.823,0.993-1.482,1.298c0.854,0.343,1.491,0.837,1.915,1.483
		c0.422,0.645,0.633,1.449,0.633,2.41c0,1.603-0.523,2.842-1.572,3.715c-1.048,0.872-2.535,1.308-4.457,1.308H110.448z
		 M113.702,6.376L113.702,6.376h3.887c0.838,0,1.452-0.142,1.841-0.429c0.388-0.287,0.585-0.741,0.585-1.361
		c0-0.604-0.189-1.041-0.567-1.314c-0.38-0.272-1.005-0.408-1.88-0.408h-3.866V6.376z M113.702,13.502L113.702,13.502h4.033
		c0.951,0,1.643-0.17,2.077-0.514c0.435-0.343,0.652-0.884,0.652-1.622c0-0.769-0.213-1.322-0.64-1.661
		c-0.426-0.339-1.131-0.509-2.112-0.509h-4.01V13.502z"/>
	<path class="st0" d="M125.9,16.478V4.319h3.031V6.4c0.427-0.836,0.925-1.449,1.494-1.841c0.568-0.392,1.246-0.586,2.033-0.586
		c0.128,0,0.226,0.001,0.299,0.005c0.07,0.004,0.129,0.009,0.172,0.016l0.013,3.301h-1.091c-0.89,0-1.561,0.231-2.01,0.692
		c-0.45,0.463-0.673,1.148-0.673,2.06v6.431H125.9z"/>
	<path class="st0" d="M141.261,14.967c-0.412,0.635-0.95,1.118-1.616,1.449c-0.665,0.331-1.441,0.498-2.325,0.498
		c-1.184,0-2.093-0.335-2.733-1.006c-0.642-0.671-0.96-1.626-0.96-2.863c0-1.148,0.318-2.025,0.96-2.628
		c0.64-0.605,1.697-1.018,3.171-1.242c0.338-0.051,0.78-0.111,1.325-0.178c1.385-0.18,2.078-0.578,2.078-1.197
		c0-0.492-0.154-0.845-0.461-1.057c-0.308-0.213-0.82-0.319-1.538-0.319c-0.66,0-1.165,0.13-1.517,0.392
		c-0.352,0.262-0.527,0.633-0.527,1.118v0.18h-3.055V7.887c0-1.245,0.44-2.225,1.325-2.936c0.882-0.712,2.103-1.068,3.66-1.068
		c1.708,0,3.016,0.294,3.925,0.883c0.909,0.589,1.364,1.44,1.364,2.551v6.913c0,0.507,0.053,0.886,0.158,1.136
		c0.104,0.25,0.28,0.437,0.528,0.564v0.549h-3.402c-0.112-0.208-0.199-0.44-0.26-0.694C141.302,15.531,141.269,15.26,141.261,14.967
		 M141.204,10.494L141.204,10.494c-0.532,0.247-1.144,0.444-1.835,0.592c-0.692,0.15-1.051,0.228-1.072,0.236
		c-0.578,0.164-0.979,0.369-1.208,0.616c-0.229,0.244-0.342,0.585-0.342,1.016c0,0.448,0.147,0.805,0.438,1.069
		c0.292,0.266,0.684,0.397,1.18,0.397c0.882,0,1.577-0.248,2.082-0.743c0.505-0.496,0.757-1.173,0.757-2.031V10.494z"/>
	<path class="st0" d="M146.045,12.518h3.257c0.03,0.62,0.253,1.08,0.673,1.382c0.419,0.302,1.048,0.454,1.887,0.454
		c0.636,0,1.129-0.106,1.476-0.319c0.349-0.212,0.524-0.512,0.524-0.9c0-0.553-0.653-0.965-1.954-1.241
		c-0.532-0.113-0.955-0.209-1.27-0.291c-1.588-0.403-2.69-0.88-3.307-1.432c-0.617-0.553-0.925-1.297-0.925-2.238
		c0-1.245,0.45-2.231,1.352-2.959c0.902-0.727,2.124-1.091,3.666-1.091c1.631,0,2.914,0.362,3.846,1.086
		c0.932,0.723,1.428,1.742,1.488,3.054h-3.178c-0.023-0.514-0.22-0.914-0.59-1.197c-0.37-0.283-0.885-0.425-1.544-0.425
		c-0.622,0-1.084,0.094-1.389,0.279c-0.302,0.188-0.453,0.467-0.453,0.84c0,0.484,0.811,0.914,2.435,1.285
		c0.374,0.083,0.669,0.15,0.888,0.203c1.624,0.38,2.734,0.839,3.33,1.375c0.594,0.537,0.893,1.295,0.893,2.272
		c0,1.379-0.489,2.431-1.466,3.155c-0.977,0.722-2.399,1.084-4.262,1.084c-1.685,0-3.002-0.377-3.953-1.13
		c-0.95-0.753-1.426-1.79-1.426-3.109V12.518z"/>
	<rect x="158.892" y="4.455" class="st0" width="3.269" height="12.024"/>
	<rect x="164.732" y="0.001" class="st0" width="3.268" height="16.477"/>
	<path class="st0" d="M162.345,1.812c0-1-0.814-1.811-1.817-1.811c-1.006,0-1.818,0.812-1.818,1.811c0,1,0.812,1.81,1.818,1.81
		C161.532,3.622,162.345,2.811,162.345,1.812"/>
	<polygon class="st0" points="4.908,16.478 4.908,2.942 0,2.942 0,0.001 13.185,0.001 13.185,2.942 8.311,2.942 8.311,16.478 	"/>
	<path class="st0" d="M10.95,10.382c0-2.021,0.55-3.609,1.651-4.766c1.1-1.155,2.612-1.734,4.537-1.734
		c1.917,0,3.427,0.578,4.531,1.734c1.103,1.157,1.657,2.745,1.657,4.766c0,2.029-0.554,3.621-1.657,4.777
		c-1.105,1.155-2.614,1.734-4.531,1.734c-1.925,0-3.436-0.578-4.537-1.734C11.5,14.003,10.95,12.411,10.95,10.382 M14.262,10.382
		L14.262,10.382c0,1.208,0.251,2.14,0.748,2.796c0.497,0.656,1.207,0.985,2.128,0.985c0.905,0,1.607-0.329,2.105-0.985
		c0.497-0.656,0.746-1.589,0.746-2.796c0-1.201-0.248-2.127-0.741-2.78c-0.494-0.652-1.197-0.978-2.111-0.978
		c-0.921,0-1.631,0.326-2.128,0.978C14.513,8.255,14.262,9.181,14.262,10.382"/>
	<rect x="25.2" y="0.001" class="st0" width="3.268" height="16.477"/>
	<path class="st0" d="M38.474,12.787h3.257c-0.33,1.283-0.994,2.286-1.993,3.014c-0.999,0.729-2.218,1.091-3.654,1.091
		c-1.767,0-3.168-0.59-4.2-1.772c-1.034-1.182-1.55-2.784-1.55-4.805c0-1.991,0.509-3.561,1.528-4.708
		c1.018-1.149,2.41-1.723,4.177-1.723c1.871,0,3.316,0.565,4.335,1.695c1.018,1.13,1.527,2.738,1.527,4.826
		c0,0.231-0.001,0.405-0.005,0.521c-0.005,0.115-0.013,0.225-0.028,0.33h-8.153c0.044,0.954,0.279,1.673,0.702,2.159
		c0.423,0.484,1.032,0.727,1.825,0.727c0.562,0,1.022-0.11,1.381-0.33C37.98,13.589,38.266,13.25,38.474,12.787 M33.713,9.117
		L33.713,9.117h4.806c-0.03-0.82-0.248-1.444-0.656-1.873c-0.41-0.429-0.994-0.643-1.758-0.643c-0.711,0-1.27,0.216-1.678,0.648
		C34.019,7.683,33.782,8.306,33.713,9.117"/>
	<path class="st0" d="M54.813,0v16.478h-3.099v-1.644c-0.471,0.707-1.001,1.228-1.589,1.559c-0.587,0.333-1.277,0.498-2.072,0.498
		c-1.505,0-2.722-0.593-3.656-1.778c-0.931-1.186-1.397-2.741-1.397-4.665c0-1.939,0.466-3.514,1.397-4.726
		c0.933-1.212,2.136-1.818,3.611-1.818c0.787,0,1.487,0.164,2.105,0.492c0.617,0.327,1.129,0.805,1.533,1.432V0H54.813z
		 M46.268,10.314L46.268,10.314c0,1.23,0.232,2.168,0.696,2.814c0.463,0.645,1.134,0.967,2.01,0.967
		c0.869,0,1.532-0.321,1.988-0.962c0.457-0.641,0.684-1.581,0.684-2.819c0-1.148-0.24-2.034-0.718-2.657
		c-0.48-0.623-1.153-0.934-2.022-0.934c-0.815,0-1.46,0.319-1.932,0.957C46.504,8.318,46.268,9.197,46.268,10.314"/>
	<path class="st0" d="M56.666,10.382c0-2.021,0.551-3.609,1.651-4.766c1.1-1.155,2.612-1.734,4.538-1.734
		c1.915,0,3.427,0.578,4.53,1.734c1.105,1.157,1.657,2.745,1.657,4.766c0,2.029-0.552,3.621-1.657,4.777
		c-1.103,1.155-2.615,1.734-4.53,1.734c-1.926,0-3.437-0.578-4.538-1.734C57.217,14.003,56.666,12.411,56.666,10.382 M59.98,10.382
		L59.98,10.382c0,1.208,0.249,2.14,0.746,2.796c0.498,0.656,1.207,0.985,2.13,0.985c0.905,0,1.607-0.329,2.104-0.985
		c0.498-0.656,0.748-1.589,0.748-2.796c0-1.201-0.248-2.127-0.742-2.78c-0.493-0.652-1.196-0.978-2.109-0.978
		c-0.923,0-1.631,0.326-2.13,0.978C60.229,8.255,59.98,9.181,59.98,10.382"/>
	<path class="st0" d="M88.1,0v16.478H85v-1.644c-0.473,0.707-1.001,1.228-1.589,1.559c-0.587,0.333-1.278,0.498-2.072,0.498
		c-1.505,0-2.722-0.593-3.656-1.778c-0.932-1.186-1.398-2.741-1.398-4.665c0-1.939,0.466-3.514,1.398-4.726
		c0.933-1.212,2.135-1.818,3.611-1.818c0.785,0,1.487,0.164,2.105,0.492c0.617,0.327,1.127,0.805,1.533,1.432V0H88.1z
		 M79.553,10.314L79.553,10.314c0,1.23,0.233,2.168,0.698,2.814c0.463,0.645,1.133,0.967,2.008,0.967
		c0.869,0,1.532-0.321,1.988-0.962c0.457-0.641,0.686-1.581,0.686-2.819c0-1.148-0.241-2.034-0.719-2.657
		c-0.478-0.623-1.153-0.934-2.02-0.934c-0.816,0-1.46,0.319-1.933,0.957C79.79,8.318,79.553,9.197,79.553,10.314"/>
	<path class="st0" d="M89.952,10.382c0-2.021,0.55-3.609,1.651-4.766c1.099-1.155,2.612-1.734,4.537-1.734
		c1.917,0,3.427,0.578,4.53,1.734c1.105,1.157,1.658,2.745,1.658,4.766c0,2.029-0.554,3.621-1.658,4.777
		c-1.103,1.155-2.613,1.734-4.53,1.734c-1.925,0-3.437-0.578-4.537-1.734C90.502,14.003,89.952,12.411,89.952,10.382 M93.265,10.382
		L93.265,10.382c0,1.208,0.25,2.14,0.748,2.796c0.497,0.656,1.207,0.985,2.128,0.985c0.905,0,1.607-0.329,2.105-0.985
		c0.497-0.656,0.748-1.589,0.748-2.796c0-1.201-0.248-2.127-0.742-2.78c-0.494-0.652-1.197-0.978-2.111-0.978
		c-0.921,0-1.631,0.326-2.128,0.978C93.515,8.255,93.265,9.181,93.265,10.382"/>
	<path class="st0" d="M110.448,16.478V0h7.794c1.69,0,2.981,0.357,3.867,1.069c0.886,0.712,1.331,1.747,1.331,3.104
		c0,0.836-0.166,1.532-0.494,2.092c-0.329,0.56-0.823,0.993-1.482,1.298c0.854,0.343,1.491,0.837,1.915,1.483
		c0.422,0.645,0.633,1.449,0.633,2.41c0,1.603-0.523,2.842-1.572,3.715c-1.048,0.872-2.535,1.308-4.457,1.308H110.448z
		 M113.702,6.376L113.702,6.376h3.887c0.838,0,1.452-0.142,1.841-0.429c0.388-0.287,0.585-0.741,0.585-1.361
		c0-0.604-0.189-1.041-0.567-1.314c-0.38-0.272-1.005-0.408-1.88-0.408h-3.866V6.376z M113.702,13.502L113.702,13.502h4.033
		c0.951,0,1.643-0.17,2.077-0.514c0.435-0.343,0.652-0.884,0.652-1.622c0-0.769-0.213-1.322-0.64-1.661
		c-0.426-0.339-1.131-0.509-2.112-0.509h-4.01V13.502z"/>
	<path class="st0" d="M125.9,16.478V4.319h3.031V6.4c0.427-0.836,0.925-1.449,1.494-1.841c0.568-0.392,1.246-0.586,2.033-0.586
		c0.128,0,0.226,0.001,0.299,0.005c0.07,0.004,0.129,0.009,0.172,0.016l0.013,3.301h-1.091c-0.89,0-1.561,0.231-2.01,0.692
		c-0.45,0.463-0.673,1.148-0.673,2.06v6.431H125.9z"/>
	<path class="st0" d="M141.261,14.967c-0.412,0.635-0.95,1.118-1.616,1.449c-0.665,0.331-1.441,0.498-2.325,0.498
		c-1.184,0-2.093-0.335-2.733-1.006c-0.642-0.671-0.96-1.626-0.96-2.863c0-1.148,0.318-2.025,0.96-2.628
		c0.64-0.605,1.697-1.018,3.171-1.242c0.338-0.051,0.78-0.111,1.325-0.178c1.385-0.18,2.078-0.578,2.078-1.197
		c0-0.492-0.154-0.845-0.461-1.057c-0.308-0.213-0.82-0.319-1.538-0.319c-0.66,0-1.165,0.13-1.517,0.392
		c-0.352,0.262-0.527,0.633-0.527,1.118v0.18h-3.055V7.887c0-1.245,0.44-2.225,1.325-2.936c0.882-0.712,2.103-1.068,3.66-1.068
		c1.708,0,3.016,0.294,3.925,0.883c0.909,0.589,1.364,1.44,1.364,2.551v6.913c0,0.507,0.053,0.886,0.158,1.136
		c0.104,0.25,0.28,0.437,0.528,0.564v0.549h-3.402c-0.112-0.208-0.199-0.44-0.26-0.694C141.302,15.531,141.269,15.26,141.261,14.967
		 M141.204,10.494L141.204,10.494c-0.532,0.247-1.144,0.444-1.835,0.592c-0.692,0.15-1.051,0.228-1.072,0.236
		c-0.578,0.164-0.979,0.369-1.208,0.616c-0.229,0.244-0.342,0.585-0.342,1.016c0,0.448,0.147,0.805,0.438,1.069
		c0.292,0.266,0.684,0.397,1.18,0.397c0.882,0,1.577-0.248,2.082-0.743c0.505-0.496,0.757-1.173,0.757-2.031V10.494z"/>
	<path class="st0" d="M146.045,12.518h3.257c0.03,0.62,0.253,1.08,0.673,1.382c0.419,0.302,1.048,0.454,1.887,0.454
		c0.636,0,1.129-0.106,1.476-0.319c0.349-0.212,0.524-0.512,0.524-0.9c0-0.553-0.653-0.965-1.954-1.241
		c-0.532-0.113-0.955-0.209-1.27-0.291c-1.588-0.403-2.69-0.88-3.307-1.432c-0.617-0.553-0.925-1.297-0.925-2.238
		c0-1.245,0.45-2.231,1.352-2.959c0.902-0.727,2.124-1.091,3.666-1.091c1.631,0,2.914,0.362,3.846,1.086
		c0.932,0.723,1.428,1.742,1.488,3.054h-3.178c-0.023-0.514-0.22-0.914-0.59-1.197c-0.37-0.283-0.885-0.425-1.544-0.425
		c-0.622,0-1.084,0.094-1.389,0.279c-0.302,0.188-0.453,0.467-0.453,0.84c0,0.484,0.811,0.914,2.435,1.285
		c0.374,0.083,0.669,0.15,0.888,0.203c1.624,0.38,2.734,0.839,3.33,1.375c0.594,0.537,0.893,1.295,0.893,2.272
		c0,1.379-0.489,2.431-1.466,3.155c-0.977,0.722-2.399,1.084-4.262,1.084c-1.685,0-3.002-0.377-3.953-1.13
		c-0.95-0.753-1.426-1.79-1.426-3.109V12.518z"/>
	<rect x="158.892" y="4.455" class="st0" width="3.269" height="12.024"/>
	<rect x="164.732" y="0.001" class="st0" width="3.268" height="16.477"/>
	<path class="st0" d="M162.345,1.812c0-1-0.814-1.811-1.817-1.811c-1.006,0-1.818,0.812-1.818,1.811c0,1,0.812,1.81,1.818,1.81
		C161.532,3.622,162.345,2.811,162.345,1.812"/>
</g>
<g id="Layer_2">
	<path d="M165.415,30.241c-0.201,0-0.339-0.036-0.411-0.11c-0.074-0.071-0.112-0.258-0.112-0.561v-3.969
		c0-0.721-0.226-1.268-0.679-1.641c-0.454-0.374-1.118-0.562-1.992-0.562c-0.879,0-1.58,0.211-2.096,0.633
		c-0.517,0.423-0.785,0.996-0.803,1.721l0.83,0.007c0.028-0.534,0.215-0.937,0.563-1.208c0.349-0.272,0.85-0.408,1.506-0.408
		c0.647,0,1.109,0.122,1.39,0.366c0.283,0.244,0.423,0.649,0.423,1.214c0,0.458-0.348,0.757-1.045,0.898
		c-0.1,0.019-0.18,0.035-0.238,0.047c-0.101,0.009-0.25,0.021-0.447,0.037c-1.017,0.076-1.742,0.213-2.178,0.408
		c-0.381,0.181-0.671,0.424-0.869,0.734c-0.201,0.31-0.299,0.671-0.299,1.086c0,0.639,0.218,1.151,0.657,1.534
		c0.438,0.382,1.022,0.576,1.76,0.576c0.517,0,1.001-0.103,1.449-0.309c0.448-0.205,0.867-0.515,1.251-0.931v0.117
		c0,0.333,0.088,0.585,0.26,0.753c0.175,0.169,0.436,0.254,0.784,0.254c0.086,0,0.183-0.005,0.288-0.017
		c0.106-0.011,0.211-0.028,0.318-0.052v-0.628c-0.051,0.004-0.101,0.008-0.147,0.009C165.535,30.241,165.481,30.241,165.415,30.241z
		 M164.021,28.051c0,0.69-0.23,1.233-0.691,1.632c-0.459,0.401-1.076,0.6-1.852,0.6c-0.508,0-0.909-0.122-1.204-0.369
		c-0.296-0.246-0.443-0.577-0.443-0.993c0-0.365,0.136-0.676,0.411-0.937c0.276-0.26,0.683-0.462,1.224-0.602
		c0.78-0.042,1.343-0.086,1.69-0.137c0.353-0.05,0.64-0.117,0.865-0.199V28.051z"/>
	<ellipse cx="167.437" cy="30.453" rx="0.546" ry="0.543"/>
	<ellipse cx="46.926" cy="22.087" rx="0.546" ry="0.544"/>
	<polygon points="4.908,30.858 5.863,30.858 5.863,25.625 5.863,20.777 4.908,20.777 4.908,25.604 	"/>
	<path d="M13.433,24.425c-0.201-0.329-0.492-0.582-0.87-0.759c-0.383-0.178-0.824-0.267-1.328-0.267
		c-0.531,0-0.998,0.113-1.401,0.338c-0.404,0.227-0.741,0.562-1.017,1.01v-1.165H8v7.275h0.859v-4.29
		c0-0.745,0.198-1.332,0.594-1.763c0.396-0.431,0.935-0.647,1.618-0.647c0.664,0,1.127,0.152,1.391,0.456
		c0.264,0.303,0.395,0.88,0.395,1.734v4.51h0.873V26.43v-0.212c0-0.546-0.023-0.941-0.069-1.179
		C13.615,24.798,13.54,24.594,13.433,24.425z"/>
	<path d="M21.005,24.841c-0.26-0.478-0.602-0.839-1.026-1.08c-0.424-0.243-0.923-0.362-1.494-0.362c-0.998,0-1.79,0.342-2.375,1.029
		c-0.583,0.686-0.876,1.621-0.876,2.803c0,1.182,0.287,2.115,0.859,2.799c0.574,0.684,1.351,1.028,2.336,1.028
		c0.572,0,1.075-0.121,1.507-0.361c0.434-0.239,0.789-0.596,1.068-1.071v1.232h0.846V20.777h-0.846V24.841z M20.431,29.514
		c-0.428,0.533-1.04,0.797-1.837,0.797c-0.773,0-1.377-0.268-1.81-0.808c-0.432-0.538-0.649-1.295-0.649-2.272
		c0-0.994,0.213-1.758,0.64-2.289c0.426-0.533,1.032-0.797,1.82-0.797c0.792,0,1.404,0.267,1.835,0.804
		c0.431,0.535,0.646,1.296,0.646,2.282C21.075,28.221,20.86,28.981,20.431,29.514z"/>
	<path d="M28.631,27.888c0,0.743-0.202,1.328-0.607,1.755c-0.407,0.427-0.959,0.64-1.661,0.64c-0.641,0-1.098-0.154-1.372-0.459
		c-0.275-0.305-0.414-0.821-0.414-1.547v-4.695h-0.845v4.893c0,0.859,0.207,1.503,0.621,1.933c0.415,0.431,1.034,0.648,1.859,0.648
		c0.55,0,1.025-0.113,1.426-0.337c0.401-0.224,0.741-0.565,1.021-1.026v1.163h0.816v-7.275h-0.845V27.888z"/>
	<polygon points="28.237,21.066 27.194,21.066 26.542,22.677 27.175,22.677 	"/>
	<path d="M34.463,26.913c-0.086-0.019-0.217-0.047-0.392-0.086c-1.328-0.311-1.992-0.79-1.992-1.437c0-0.376,0.15-0.675,0.447-0.903
		c0.299-0.228,0.696-0.342,1.196-0.342c0.571,0,1.025,0.137,1.359,0.413c0.334,0.276,0.52,0.66,0.556,1.154h0.859
		c-0.05-0.726-0.318-1.293-0.804-1.701c-0.485-0.408-1.138-0.613-1.958-0.613c-0.745,0-1.352,0.196-1.816,0.585
		c-0.466,0.391-0.699,0.898-0.699,1.523c0,0.538,0.179,0.958,0.533,1.26c0.354,0.301,1.055,0.576,2.099,0.828l0.035,0.007
		c1.297,0.31,1.944,0.76,1.944,1.35c0,0.409-0.175,0.733-0.527,0.974c-0.349,0.239-0.828,0.358-1.437,0.358
		c-0.564,0-1.026-0.156-1.385-0.468c-0.36-0.313-0.551-0.721-0.574-1.221h-0.846c0.024,0.749,0.292,1.346,0.805,1.793
		s1.191,0.671,2.039,0.671c0.832,0,1.506-0.195,2.016-0.582c0.511-0.386,0.766-0.89,0.766-1.505c0-0.551-0.162-0.981-0.489-1.285
		C35.876,27.378,35.299,27.121,34.463,26.913z"/>
	<path d="M39.397,21.497h-0.845v2.087h-0.997v0.684h0.997v5.304c0,0.557,0.086,0.942,0.26,1.153
		c0.174,0.213,0.473,0.319,0.893,0.319c0.152,0,0.311-0.013,0.482-0.039c0.168-0.024,0.357-0.064,0.563-0.118l-0.007-0.671
		c-0.234,0.051-0.407,0.083-0.516,0.098c-0.11,0.016-0.209,0.024-0.296,0.024c-0.201,0-0.339-0.05-0.419-0.15
		c-0.078-0.099-0.116-0.305-0.116-0.616v-5.304h1.354v-0.684h-1.354V21.497z"/>
	<path d="M43.79,23.761c-0.374,0.243-0.665,0.608-0.877,1.095v-1.273h-0.818v7.275h0.873v-4.009c0-0.853,0.182-1.495,0.547-1.923
		c0.364-0.429,0.909-0.644,1.639-0.644h0.11v-0.883h-0.098C44.623,23.399,44.164,23.519,43.79,23.761z"/>
	<rect x="46.507" y="23.583" width="0.839" height="7.275"/>
	<path d="M55.41,30.241c-0.201,0-0.338-0.036-0.412-0.11c-0.073-0.071-0.11-0.258-0.11-0.561v-3.969
		c0-0.721-0.226-1.268-0.679-1.641c-0.453-0.374-1.118-0.562-1.992-0.562c-0.879,0-1.579,0.211-2.096,0.633
		s-0.787,0.996-0.803,1.721l0.831,0.007c0.026-0.534,0.214-0.937,0.563-1.208c0.349-0.272,0.85-0.408,1.504-0.408
		c0.647,0,1.109,0.122,1.391,0.366c0.28,0.244,0.423,0.649,0.423,1.214c0,0.458-0.349,0.757-1.045,0.898
		c-0.101,0.019-0.18,0.035-0.24,0.047c-0.102,0.009-0.25,0.021-0.447,0.037c-1.016,0.076-1.742,0.213-2.178,0.408
		c-0.38,0.181-0.669,0.424-0.869,0.734c-0.199,0.31-0.299,0.671-0.299,1.086c0,0.639,0.218,1.151,0.657,1.534
		c0.436,0.382,1.024,0.576,1.76,0.576c0.519,0,1.001-0.103,1.451-0.309c0.447-0.205,0.866-0.515,1.25-0.931v0.117
		c0,0.333,0.086,0.585,0.261,0.753c0.174,0.169,0.435,0.254,0.783,0.254c0.088,0,0.183-0.005,0.288-0.017
		c0.106-0.011,0.211-0.028,0.318-0.052v-0.628c-0.051,0.004-0.101,0.008-0.146,0.009C55.53,30.241,55.475,30.241,55.41,30.241z
		 M54.016,28.051c0,0.69-0.23,1.233-0.691,1.632c-0.459,0.401-1.076,0.6-1.851,0.6c-0.509,0-0.911-0.122-1.206-0.369
		c-0.295-0.246-0.443-0.577-0.443-0.993c0-0.365,0.137-0.676,0.412-0.937c0.275-0.26,0.683-0.462,1.224-0.602
		c0.777-0.042,1.342-0.086,1.692-0.137c0.35-0.05,0.637-0.117,0.862-0.199V28.051z"/>
	<path d="M66.025,24.841c-0.261-0.478-0.603-0.839-1.026-1.08c-0.424-0.243-0.923-0.362-1.495-0.362
		c-0.998,0-1.79,0.342-2.375,1.029c-0.583,0.686-0.875,1.621-0.875,2.803c0,1.182,0.287,2.115,0.859,2.799
		c0.574,0.684,1.352,1.028,2.336,1.028c0.573,0,1.076-0.121,1.507-0.361c0.435-0.239,0.789-0.596,1.069-1.071v1.232h0.845V20.777
		h-0.845V24.841z M65.45,29.514c-0.427,0.533-1.04,0.797-1.837,0.797c-0.773,0-1.377-0.268-1.81-0.808
		c-0.432-0.538-0.648-1.295-0.648-2.272c0-0.994,0.213-1.758,0.64-2.289c0.424-0.533,1.032-0.797,1.818-0.797
		c0.793,0,1.405,0.267,1.836,0.804c0.43,0.535,0.645,1.296,0.645,2.282C66.094,28.221,65.88,28.981,65.45,29.514z"/>
	<path d="M71.623,23.399c-1.006,0-1.794,0.339-2.358,1.018c-0.566,0.682-0.849,1.626-0.849,2.842c0,1.189,0.281,2.121,0.844,2.791
		c0.563,0.671,1.343,1.008,2.336,1.008c0.834,0,1.526-0.223,2.076-0.668c0.55-0.444,0.87-1.037,0.962-1.776h-0.845
		c-0.083,0.534-0.317,0.954-0.702,1.263c-0.384,0.309-0.862,0.462-1.436,0.462c-0.723,0-1.301-0.263-1.731-0.789
		c-0.432-0.527-0.647-1.236-0.647-2.125v-0.042h5.462v-0.28c0-1.167-0.273-2.077-0.819-2.726
		C73.368,23.724,72.604,23.399,71.623,23.399z M69.289,26.704c0.04-0.785,0.271-1.409,0.69-1.874
		c0.419-0.466,0.963-0.698,1.633-0.698c0.664,0,1.196,0.228,1.596,0.687c0.401,0.459,0.62,1.089,0.656,1.892L69.289,26.704z"/>
	<path d="M85.495,25.534c0.475-0.192,0.846-0.476,1.11-0.856c0.263-0.378,0.396-0.819,0.396-1.32c0-0.47-0.109-0.896-0.325-1.276
		c-0.216-0.381-0.515-0.679-0.9-0.894c-0.248-0.146-0.542-0.251-0.884-0.314c-0.341-0.064-0.801-0.097-1.383-0.097h-3.346v10.081
		h2.796c0.916,0,1.581-0.017,1.992-0.051c0.412-0.035,0.718-0.093,0.92-0.174c0.5-0.196,0.89-0.514,1.173-0.953
		c0.281-0.436,0.42-0.951,0.42-1.539c0-0.68-0.174-1.251-0.525-1.715C86.592,25.963,86.109,25.667,85.495,25.534z M81.092,21.605
		h2.253c1.016,0,1.72,0.137,2.112,0.411c0.391,0.274,0.589,0.742,0.589,1.404c0,0.667-0.206,1.138-0.613,1.417
		c-0.407,0.278-1.133,0.416-2.178,0.416h-2.163V21.605z M85.918,29.591c-0.392,0.293-1.092,0.439-2.1,0.439h-2.726v-3.997h2.802
		c0.862,0,1.513,0.173,1.95,0.521c0.44,0.346,0.661,0.863,0.661,1.547C86.505,28.802,86.31,29.3,85.918,29.591z"/>
	<path d="M95.078,30.241c-0.201,0-0.338-0.036-0.414-0.11c-0.071-0.071-0.109-0.258-0.109-0.561v-3.969
		c0-0.721-0.226-1.268-0.679-1.641c-0.453-0.374-1.118-0.562-1.994-0.562c-0.878,0-1.579,0.211-2.096,0.633
		c-0.516,0.423-0.785,0.996-0.803,1.721l0.832,0.007c0.026-0.534,0.213-0.937,0.563-1.208c0.349-0.272,0.85-0.408,1.503-0.408
		c0.648,0,1.11,0.122,1.391,0.366s0.424,0.649,0.424,1.214c0,0.458-0.349,0.757-1.045,0.898c-0.101,0.019-0.182,0.035-0.24,0.047
		c-0.102,0.009-0.251,0.021-0.446,0.037c-1.017,0.076-1.744,0.213-2.181,0.408c-0.379,0.181-0.669,0.424-0.867,0.734
		c-0.201,0.31-0.299,0.671-0.299,1.086c0,0.639,0.218,1.151,0.656,1.534c0.439,0.382,1.024,0.576,1.762,0.576
		c0.52,0,1.001-0.103,1.449-0.309c0.449-0.205,0.867-0.515,1.251-0.931v0.117c0,0.333,0.086,0.585,0.26,0.753
		c0.175,0.169,0.438,0.254,0.784,0.254c0.086,0,0.183-0.005,0.288-0.017c0.105-0.011,0.21-0.028,0.317-0.052v-0.628
		c-0.05,0.004-0.098,0.008-0.146,0.009C95.197,30.241,95.142,30.241,95.078,30.241z M93.683,28.051c0,0.69-0.23,1.233-0.69,1.632
		c-0.459,0.401-1.078,0.6-1.851,0.6c-0.509,0-0.91-0.122-1.205-0.369c-0.296-0.246-0.443-0.577-0.443-0.993
		c0-0.365,0.136-0.676,0.412-0.937c0.273-0.26,0.682-0.462,1.223-0.602c0.779-0.042,1.343-0.086,1.693-0.137
		c0.35-0.05,0.637-0.117,0.861-0.199V28.051z"/>
	<rect x="96.618" y="20.777" width="0.838" height="10.081"/>
	<path d="M105.52,30.241c-0.199,0-0.337-0.036-0.411-0.11C105.036,30.06,105,29.874,105,29.57v-3.969
		c0-0.721-0.228-1.268-0.68-1.641c-0.454-0.374-1.118-0.562-1.992-0.562c-0.88,0-1.579,0.211-2.096,0.633s-0.787,0.996-0.804,1.721
		l0.831,0.007c0.028-0.534,0.215-0.937,0.564-1.208c0.347-0.272,0.849-0.408,1.504-0.408c0.647,0,1.109,0.122,1.39,0.366
		c0.28,0.244,0.423,0.649,0.423,1.214c0,0.458-0.348,0.757-1.044,0.898c-0.101,0.019-0.181,0.035-0.24,0.047
		c-0.102,0.009-0.249,0.021-0.447,0.037c-1.017,0.076-1.743,0.213-2.178,0.408c-0.381,0.181-0.669,0.424-0.869,0.734
		c-0.201,0.31-0.3,0.671-0.3,1.086c0,0.639,0.219,1.151,0.657,1.534c0.438,0.382,1.025,0.576,1.763,0.576
		c0.517,0,0.999-0.103,1.449-0.309c0.447-0.205,0.865-0.515,1.25-0.931v0.117c0,0.333,0.085,0.585,0.26,0.753
		c0.174,0.169,0.438,0.254,0.783,0.254c0.089,0,0.185-0.005,0.29-0.017c0.105-0.011,0.21-0.028,0.317-0.052v-0.628
		c-0.05,0.004-0.101,0.008-0.144,0.009C105.64,30.241,105.586,30.241,105.52,30.241z M104.127,28.051c0,0.69-0.23,1.233-0.691,1.632
		c-0.459,0.401-1.076,0.6-1.851,0.6c-0.509,0-0.911-0.122-1.206-0.369c-0.295-0.246-0.442-0.577-0.442-0.993
		c0-0.365,0.135-0.676,0.409-0.937c0.275-0.26,0.683-0.462,1.226-0.602c0.777-0.042,1.34-0.086,1.692-0.137
		c0.35-0.05,0.637-0.117,0.862-0.199V28.051z"/>
	<path d="M112.406,24.425c-0.202-0.329-0.493-0.582-0.873-0.759c-0.381-0.178-0.823-0.267-1.327-0.267
		c-0.531,0-0.997,0.113-1.402,0.338c-0.403,0.227-0.74,0.562-1.016,1.01v-1.165h-0.818v7.275h0.859v-4.29
		c0-0.745,0.198-1.332,0.594-1.763c0.396-0.431,0.935-0.647,1.616-0.647c0.664,0,1.127,0.152,1.393,0.456
		c0.263,0.303,0.393,0.88,0.393,1.734v4.51h0.873V26.43v-0.212c0-0.546-0.023-0.941-0.067-1.179
		C112.587,24.798,112.511,24.594,112.406,24.425z"/>
	<path d="M118.878,29.798c-0.381,0.352-0.854,0.526-1.422,0.526c-0.727,0-1.309-0.279-1.742-0.841
		c-0.432-0.561-0.649-1.322-0.649-2.285c0-0.941,0.213-1.684,0.643-2.231c0.427-0.547,1.006-0.821,1.735-0.821
		c0.554,0,1.021,0.16,1.398,0.479c0.377,0.319,0.601,0.745,0.668,1.273h0.812c-0.042-0.749-0.326-1.352-0.855-1.81
		c-0.529-0.459-1.204-0.688-2.023-0.688c-1.008,0-1.802,0.345-2.38,1.033c-0.579,0.69-0.869,1.636-0.869,2.841
		c0,1.163,0.284,2.082,0.855,2.757c0.493,0.587,1.156,0.903,1.967,0.98l-0.001,0.848h0.005l0.001,0.259
		c0.039-0.003,0.08-0.005,0.124-0.008c0.044-0.003,0.11-0.004,0.193-0.004c0.349,0,0.603,0.058,0.764,0.174
		c0.159,0.115,0.24,0.297,0.24,0.543c0,0.201-0.078,0.353-0.23,0.46c-0.152,0.105-0.377,0.156-0.669,0.156
		c-0.198,0-0.431-0.019-0.702-0.058c-0.271-0.039-0.581-0.098-0.933-0.181v0.534c0.325,0.09,0.632,0.158,0.917,0.201
		c0.287,0.043,0.562,0.066,0.827,0.066c0.5,0,0.882-0.105,1.148-0.313c0.265-0.207,0.397-0.504,0.397-0.892
		c0-0.384-0.131-0.676-0.393-0.876c-0.264-0.2-0.643-0.301-1.137-0.301h-0.097v-0.581c0.826-0.015,1.504-0.25,2.027-0.716
		c0.54-0.482,0.85-1.141,0.928-1.974h-0.845C119.491,28.962,119.259,29.447,118.878,29.798z"/>
	<path d="M127.911,30.241c-0.201,0-0.339-0.036-0.411-0.11c-0.074-0.071-0.11-0.258-0.11-0.561v-3.969
		c0-0.721-0.226-1.268-0.68-1.641c-0.453-0.374-1.117-0.562-1.992-0.562c-0.88,0-1.579,0.211-2.096,0.633
		c-0.517,0.423-0.785,0.996-0.803,1.721l0.831,0.007c0.026-0.534,0.216-0.937,0.563-1.208c0.348-0.272,0.85-0.408,1.505-0.408
		c0.646,0,1.11,0.122,1.39,0.366c0.283,0.244,0.423,0.649,0.423,1.214c0,0.458-0.348,0.757-1.044,0.898
		c-0.101,0.019-0.18,0.035-0.24,0.047c-0.102,0.009-0.25,0.021-0.446,0.037c-1.017,0.076-1.744,0.213-2.179,0.408
		c-0.381,0.181-0.669,0.424-0.869,0.734c-0.199,0.31-0.3,0.671-0.3,1.086c0,0.639,0.22,1.151,0.657,1.534
		c0.438,0.382,1.025,0.576,1.762,0.576c0.519,0,1.001-0.103,1.451-0.309c0.448-0.205,0.866-0.515,1.25-0.931v0.117
		c0,0.333,0.088,0.585,0.26,0.753c0.175,0.169,0.436,0.254,0.784,0.254c0.088,0,0.183-0.005,0.29-0.017
		c0.105-0.011,0.21-0.028,0.316-0.052v-0.628c-0.051,0.004-0.101,0.008-0.145,0.009C128.03,30.241,127.975,30.241,127.911,30.241z
		 M126.518,28.051c0,0.69-0.232,1.233-0.691,1.632c-0.461,0.401-1.078,0.6-1.852,0.6c-0.509,0-0.909-0.122-1.206-0.369
		c-0.295-0.246-0.443-0.577-0.443-0.993c0-0.365,0.137-0.676,0.409-0.937c0.276-0.26,0.683-0.462,1.226-0.602
		c0.779-0.042,1.344-0.086,1.693-0.137c0.35-0.05,0.637-0.117,0.864-0.199V28.051z"/>
	<path d="M132.454,26.913c-0.088-0.019-0.219-0.047-0.393-0.086c-1.327-0.311-1.992-0.79-1.992-1.437
		c0-0.376,0.15-0.675,0.447-0.903c0.299-0.228,0.696-0.342,1.196-0.342c0.571,0,1.025,0.137,1.36,0.413
		c0.333,0.276,0.52,0.66,0.556,1.154h0.858c-0.05-0.726-0.318-1.293-0.803-1.701c-0.486-0.408-1.138-0.613-1.96-0.613
		c-0.745,0-1.351,0.196-1.816,0.585c-0.465,0.391-0.698,0.898-0.698,1.523c0,0.538,0.178,0.958,0.533,1.26
		c0.353,0.301,1.053,0.576,2.099,0.828l0.034,0.007c1.297,0.31,1.945,0.76,1.945,1.35c0,0.409-0.175,0.733-0.528,0.974
		c-0.348,0.239-0.828,0.358-1.437,0.358c-0.564,0-1.026-0.156-1.385-0.468c-0.361-0.313-0.55-0.721-0.574-1.221h-0.844
		c0.024,0.749,0.291,1.346,0.803,1.793c0.515,0.447,1.193,0.671,2.041,0.671c0.832,0,1.506-0.195,2.016-0.582
		c0.512-0.386,0.766-0.89,0.766-1.505c0-0.551-0.163-0.981-0.489-1.285C133.867,27.378,133.287,27.121,132.454,26.913z"/>
	<polygon points="141.158,20.777 140.202,20.777 140.202,30.857 146.324,30.857 146.324,30.03 141.158,30.03 	"/>
	<path d="M148.445,21.497h-0.845v2.087h-0.995v0.684h0.995v5.304c0,0.557,0.088,0.942,0.261,1.153
		c0.174,0.213,0.471,0.319,0.893,0.319c0.152,0,0.312-0.013,0.481-0.039c0.17-0.024,0.358-0.064,0.564-0.118l-0.008-0.671
		c-0.233,0.051-0.405,0.083-0.516,0.098c-0.109,0.016-0.207,0.024-0.295,0.024c-0.202,0-0.341-0.05-0.419-0.15
		c-0.078-0.099-0.117-0.305-0.117-0.616v-5.304h1.355v-0.684h-1.355V21.497z"/>
	<path d="M156.566,24.841c-0.261-0.478-0.603-0.839-1.026-1.08c-0.423-0.243-0.921-0.362-1.495-0.362
		c-0.997,0-1.789,0.342-2.375,1.029c-0.582,0.686-0.874,1.621-0.874,2.803c0,1.182,0.287,2.115,0.858,2.799
		c0.574,0.684,1.352,1.028,2.337,1.028c0.571,0,1.075-0.121,1.507-0.361c0.434-0.239,0.788-0.596,1.068-1.071v1.232h0.846V20.777
		h-0.846V24.841z M155.992,29.514c-0.427,0.533-1.041,0.797-1.837,0.797c-0.775,0-1.377-0.268-1.81-0.808
		c-0.432-0.538-0.649-1.295-0.649-2.272c0-0.994,0.213-1.758,0.641-2.289c0.424-0.533,1.03-0.797,1.818-0.797
		c0.792,0,1.404,0.267,1.835,0.804c0.431,0.535,0.645,1.296,0.645,2.282C156.635,28.221,156.421,28.981,155.992,29.514z"/>
</g>
</svg>
